<?xml version="1.0" encoding="UTF-8" standalone="no"?>
<!-- Created with Inkscape (http://www.inkscape.org/) -->

<svg
   width="210mm"
   height="297mm"
   viewBox="0 0 210 297"
   version="1.1"
   id="svg1"
   inkscape:version="1.3.2 (091e20e, 2023-11-25, custom)"
   sodipodi:docname="character.svg"
   xmlns:inkscape="http://www.inkscape.org/namespaces/inkscape"
   xmlns:sodipodi="http://sodipodi.sourceforge.net/DTD/sodipodi-0.dtd"
   xmlns="http://www.w3.org/2000/svg"
   xmlns:svg="http://www.w3.org/2000/svg">
  <sodipodi:namedview
     id="namedview1"
     pagecolor="#ffffff"
     bordercolor="#000000"
     borderopacity="0.25"
     inkscape:showpageshadow="2"
     inkscape:pageopacity="0.0"
     inkscape:pagecheckerboard="0"
     inkscape:deskcolor="#d1d1d1"
     inkscape:document-units="mm"
     inkscape:zoom="1.4485269"
     inkscape:cx="428.36621"
     inkscape:cy="317.90917"
     inkscape:window-width="1920"
     inkscape:window-height="1009"
     inkscape:window-x="-8"
     inkscape:window-y="-8"
     inkscape:window-maximized="1"
     inkscape:current-layer="layer1" />
  <defs
     id="defs1" />
  <g
     inkscape:label="Layer 1"
     inkscape:groupmode="layer"
     id="layer1">
    <path
       style="fill:none;stroke:#000000;stroke-width:0;stroke-dasharray:none;stroke-opacity:1"
       d="m 66.645466,51.146521 2.583156,104.359569 78.527988,-6.19958 -32.8061,-91.702095 z"
       id="path2" />
    <path
       style="fill:none;fill-opacity:1;stroke:#000000;stroke-width:0.404507;stroke-dasharray:none;stroke-opacity:1"
       d="m 118.04518,36.896308 c 1.4472,2.416285 2.77391,5.016083 3.32291,7.746085 0.73308,3.645432 -0.83988,6.905256 0.66465,10.19992 0.39274,0.860015 -1.04558,0.411417 -1.33577,1.256261 -0.61968,1.804102 0.0289,5.206689 -0.56697,6.059584 0.15327,0.524323 -7.94162,3.589399 -17.06045,0.145778 -1.46972,-8.29729 -7.02103,-16.470201 -3.359543,-22.567339 6.295073,-2.991199 11.161503,-4.620961 18.335173,-2.840289 z"
       id="path3"
       sodipodi:nodetypes="cssscccc" />
    <path
       style="fill:none;fill-opacity:1;stroke:#000000;stroke-width:0.499999;stroke-dasharray:none;stroke-opacity:1"
       d="m 114.17557,58.637677 -9.29937,0.774946 0.51663,14.982314 9.55768,0.774949 z"
       id="path12" />
    <path
       style="fill:none;fill-opacity:1;stroke:#000000;stroke-width:0.499999;stroke-dasharray:none;stroke-opacity:1"
       d="m 98.159989,74.136622 c 13.035451,-9.155516 11.797991,-1.231728 23.765041,0.258316 l -0.0799,17.78789 c -3.34303,11.217202 -3.3179,19.066252 -4.8281,28.450632 l -16.79054,-0.77494 z"
       id="path13"
       sodipodi:nodetypes="cccccc" />
    <path
       style="fill:none;fill-opacity:1;stroke:#000000;stroke-width:0.499999;stroke-dasharray:none;stroke-opacity:1"
       d="m 98.934935,119.85851 18.340425,1.03326 -0.18267,4.65729 -17.823781,-1.51855 z"
       id="path14"
       sodipodi:nodetypes="ccccc" />
    <path
       style="fill:none;fill-opacity:1;stroke:#000000;stroke-width:0.414153;stroke-dasharray:none;stroke-opacity:1"
       d="m 99.773625,123.51297 0.754895,38.23697 1.08118,3.85301 -0.83256,4.58234 c 2.72544,8.31023 4.68241,0.55311 3.00397,6.33756 l 7.43535,0.77356 c 1.88,-4.55769 -0.32117,-3.00605 3.31332,-5.37782 l -1.2783,-4.82892 2.26768,-1.38669 1.47225,-40.1644 z"
       id="path15"
       sodipodi:nodetypes="ccccccccccc" />
    <path
       style="fill:none;fill-opacity:1;stroke:#000000;stroke-width:0.499999;stroke-dasharray:none;stroke-opacity:1"
       d="m 99.9682,173.07156 v 21.18189 6.19958 l 15.75726,0.51663 -1.5499,-6.97452 2.58316,-18.08211 z"
       id="path16"
       sodipodi:nodetypes="ccccccc" />
    <path
       style="fill:none;fill-opacity:1;stroke:#000000;stroke-width:0.499999;stroke-dasharray:none;stroke-opacity:1"
       d="m 114.17557,190.89535 17.82378,4.908 c 1.31801,1.6851 2.605,0.004 0.51663,6.45789 l -20.14862,-1.54989 z"
       id="path17"
       sodipodi:nodetypes="ccccc" />
    <path
       style="fill:none;fill-opacity:1;stroke:#000000;stroke-width:0.499999;stroke-dasharray:none;stroke-opacity:1"
       d="m 100.74315,197.35324 -3.87474,7.49116 17.56547,0.51663 -3.09979,-6.19958 z"
       id="path18" />
    <path
       style="fill:none;fill-opacity:1;stroke:#000000;stroke-width:0.499999;stroke-dasharray:none;stroke-opacity:1"
       d="m 131.74104,200.71135 3.09979,3.87473 -13.43243,0.25832 1.80822,-4.39137 z"
       id="path19"
       sodipodi:nodetypes="ccccc" />
    <path
       style="fill:none;fill-opacity:1;stroke:#000000;stroke-width:0.443574;stroke-dasharray:none;stroke-opacity:1"
       d="m 104.6338,75.042715 0.18388,30.560855 h 8.45808 l -0.73548,-30.41805 z"
       id="path20" />
    <path
       style="fill:none;fill-opacity:1;stroke:#000000;stroke-width:0.499999;stroke-dasharray:none;stroke-opacity:1"
       d="m 105.02767,105.57564 0.18266,21.91882 8.0369,-0.36531 -0.54797,-21.55351 z"
       id="path21" />
    <path
       style="fill:none;fill-opacity:1;stroke:#000000;stroke-width:0.499999;stroke-dasharray:none;stroke-opacity:1"
       d="m 105.21033,128.22509 -1.09594,9.13284 3.10517,5.47971 5.84501,-3.65314 -3.28782,-2.92251 0.54797,-4.74908 2.73985,4.01845 1.46126,-2.37453 -3.28783,-3.10517 -0.54796,-2.5572 z"
       id="path22" />
    <path
       style="fill:none;fill-opacity:1;stroke:#000000;stroke-width:0.499999;stroke-dasharray:none;stroke-opacity:1"
       d="m 102.29304,72.845043 -1.29158,-6.199577 17.30716,2.324841 -0.77495,6.457895 z"
       id="path23" />
    <path
       style="fill:#ff45da;fill-opacity:1;stroke:#000000;stroke-width:0.5;stroke-linejoin:round;stroke-dasharray:none;stroke-opacity:1"
       d="m 121.53757,44.301153 c -3.06569,0.529499 -6.45313,-1.193302 -8.55092,6.111453 l -2.04004,-4.819875 -4.00388,0.387474 c -5.98798,11.194529 -1.42779,10.736877 -3.09979,17.307155 -5.344577,-4.019895 -10.253716,-19.208972 -6.32874,-23.894206 3.84582,-5.897068 17.06534,-6.981489 21.95684,-3.228949 1.01415,2.650148 2.05792,6.492343 2.06653,8.136948 z"
       id="path24"
       sodipodi:nodetypes="cccccccc" />
    <path
       style="fill:none;fill-opacity:1;stroke:#000000;stroke-width:0.499999;stroke-dasharray:none;stroke-opacity:1"
       d="m 110.42998,48.04673 c -1.54059,2.152632 -2.53919,3.142842 0,5.295473 v 2.583158"
       id="path25"
       sodipodi:nodetypes="ccc" />
    <path
       style="fill:#ff45da;fill-opacity:1;stroke:#000000;stroke-width:0.499999;stroke-dasharray:none;stroke-opacity:1"
       d="m 120.89177,41.717996 c 3.31749,-4.189393 6.36582,-3.821029 9.84829,-2.260262 -4.08965,-1.379586 -8.19942,0.846253 -9.2025,4.875708 z"
       id="path26"
       sodipodi:nodetypes="cccc" />
    <path
       style="fill:#ff45da;fill-opacity:1;stroke:#000000;stroke-width:0.499999;stroke-dasharray:none;stroke-opacity:1"
       d="m 120.11681,39.58689 c 3.82234,-5.791369 8.93419,-3.372647 11.10758,-0.904105 -4.08965,-1.84331 -9.36184,-1.38479 -10.36492,3.907025 z"
       id="path27"
       sodipodi:nodetypes="cccc" />
  </g>
  <g
     inkscape:groupmode="layer"
     id="layer2"
     inkscape:label="Layer 2" />
</svg>
